<?xml version="1.0" encoding="UTF-8" standalone="no"?>
<!DOCTYPE svg PUBLIC "-//W3C//DTD SVG 1.1//EN"
 "http://www.w3.org/Graphics/SVG/1.1/DTD/svg11.dtd">
<!-- Generated by graphviz version 3.0.0 (20220413.0242)
 -->
<!-- Title: name Pages: 1 -->
<svg width="370pt" height="182pt"
 viewBox="0.00 0.00 369.50 182.00" xmlns="http://www.w3.org/2000/svg" xmlns:xlink="http://www.w3.org/1999/xlink">
<g id="graph0" class="graph" transform="scale(1 1) rotate(0) translate(4 178)">
<title>name</title>
<!-- paper -->
<g id="node1" class="node">
<title>paper</title>
<polygon fill="Lavender" stroke="transparent" points="8,-41.5 8,-64.5 156,-64.5 156,-41.5 8,-41.5"/>
<polygon fill="none" stroke="black" points="8,-41.5 8,-64.5 156,-64.5 156,-41.5 8,-41.5"/>
<text text-anchor="start" x="63" y="-49.9" font-family="Helvetica,sans-Serif" font-weight="bold" font-size="12.00">paper</text>
<polygon fill="White" stroke="transparent" points="8,-22.5 8,-41.5 97,-41.5 97,-22.5 8,-22.5"/>
<polygon fill="none" stroke="black" points="8,-22.5 8,-41.5 97,-41.5 97,-22.5 8,-22.5"/>
<text text-anchor="start" x="11" y="-28.9" font-family="Helvetica,sans-Serif" font-size="12.00">paper_id</text>
<polygon fill="White" stroke="transparent" points="97,-22.5 97,-41.5 156,-41.5 156,-22.5 97,-22.5"/>
<polygon fill="none" stroke="black" points="97,-22.5 97,-41.5 156,-41.5 156,-22.5 97,-22.5"/>
<text text-anchor="start" x="100" y="-28.9" font-family="Helvetica,sans-Serif" font-size="12.00">int</text>
<polygon fill="White" stroke="transparent" points="8,-3.5 8,-22.5 97,-22.5 97,-3.5 8,-3.5"/>
<polygon fill="none" stroke="black" points="8,-3.5 8,-22.5 97,-22.5 97,-3.5 8,-3.5"/>
<text text-anchor="start" x="11" y="-9.9" font-family="Helvetica,sans-Serif" font-size="12.00">class_label</text>
<polygon fill="White" stroke="transparent" points="97,-3.5 97,-22.5 156,-22.5 156,-3.5 97,-3.5"/>
<polygon fill="none" stroke="black" points="97,-3.5 97,-22.5 156,-22.5 156,-3.5 97,-3.5"/>
<text text-anchor="start" x="100" y="-9.9" font-family="Helvetica,sans-Serif" font-size="12.00">varchar</text>
</g>
<!-- cites -->
<g id="node2" class="node">
<title>cites</title>
<polygon fill="Lavender" stroke="transparent" points="8,-146.5 8,-169.5 156,-169.5 156,-146.5 8,-146.5"/>
<polygon fill="none" stroke="black" points="8,-146.5 8,-169.5 156,-169.5 156,-146.5 8,-146.5"/>
<text text-anchor="start" x="63" y="-154.9" font-family="Helvetica,sans-Serif" font-weight="bold" font-size="12.00">cites</text>
<polygon fill="White" stroke="transparent" points="8,-127.5 8,-146.5 127,-146.5 127,-127.5 8,-127.5"/>
<polygon fill="none" stroke="black" points="8,-127.5 8,-146.5 127,-146.5 127,-127.5 8,-127.5"/>
<text text-anchor="start" x="11" y="-133.9" font-family="Helvetica,sans-Serif" font-size="12.00">cited_paper_id</text>
<polygon fill="White" stroke="transparent" points="127,-127.5 127,-146.5 156,-146.5 156,-127.5 127,-127.5"/>
<polygon fill="none" stroke="black" points="127,-127.5 127,-146.5 156,-146.5 156,-127.5 127,-127.5"/>
<text text-anchor="start" x="130" y="-133.9" font-family="Helvetica,sans-Serif" font-size="12.00">int</text>
<polygon fill="White" stroke="transparent" points="8,-108.5 8,-127.5 127,-127.5 127,-108.5 8,-108.5"/>
<polygon fill="none" stroke="black" points="8,-108.5 8,-127.5 127,-127.5 127,-108.5 8,-108.5"/>
<text text-anchor="start" x="11" y="-114.9" font-family="Helvetica,sans-Serif" font-size="12.00">citing_paper_id</text>
<polygon fill="White" stroke="transparent" points="127,-108.5 127,-127.5 156,-127.5 156,-108.5 127,-108.5"/>
<polygon fill="none" stroke="black" points="127,-108.5 127,-127.5 156,-127.5 156,-108.5 127,-108.5"/>
<text text-anchor="start" x="130" y="-114.9" font-family="Helvetica,sans-Serif" font-size="12.00">int</text>
</g>
<!-- cites&#45;&gt;paper -->
<g id="edge1" class="edge">
<title>cites&#45;&gt;paper</title>
<path fill="none" stroke="black" d="M54.67,-104.83C54.67,-104.83 54.67,-79.14 54.67,-79.14"/>
<polygon fill="black" stroke="black" points="58.17,-79.14 54.67,-69.14 51.17,-79.14 58.17,-79.14"/>
</g>
<!-- cites&#45;&gt;paper -->
<g id="edge2" class="edge">
<title>cites&#45;&gt;paper</title>
<path fill="none" stroke="black" d="M109.33,-104.83C109.33,-104.83 109.33,-79.14 109.33,-79.14"/>
<polygon fill="black" stroke="black" points="112.83,-79.14 109.33,-69.14 105.83,-79.14 112.83,-79.14"/>
</g>
<!-- content -->
<g id="node3" class="node">
<title>content</title>
<polygon fill="Lavender" stroke="transparent" points="191,-146.5 191,-169.5 354,-169.5 354,-146.5 191,-146.5"/>
<polygon fill="none" stroke="black" points="191,-146.5 191,-169.5 354,-169.5 354,-146.5 191,-146.5"/>
<text text-anchor="start" x="246" y="-154.9" font-family="Helvetica,sans-Serif" font-weight="bold" font-size="12.00">content</text>
<polygon fill="White" stroke="transparent" points="191,-127.5 191,-146.5 295,-146.5 295,-127.5 191,-127.5"/>
<polygon fill="none" stroke="black" points="191,-127.5 191,-146.5 295,-146.5 295,-127.5 191,-127.5"/>
<text text-anchor="start" x="194" y="-133.9" font-family="Helvetica,sans-Serif" font-size="12.00">paper_id</text>
<polygon fill="White" stroke="transparent" points="295,-127.5 295,-146.5 354,-146.5 354,-127.5 295,-127.5"/>
<polygon fill="none" stroke="black" points="295,-127.5 295,-146.5 354,-146.5 354,-127.5 295,-127.5"/>
<text text-anchor="start" x="298" y="-133.9" font-family="Helvetica,sans-Serif" font-size="12.00">int</text>
<polygon fill="White" stroke="transparent" points="191,-108.5 191,-127.5 295,-127.5 295,-108.5 191,-108.5"/>
<polygon fill="none" stroke="black" points="191,-108.5 191,-127.5 295,-127.5 295,-108.5 191,-108.5"/>
<text text-anchor="start" x="194" y="-114.9" font-family="Helvetica,sans-Serif" font-size="12.00">word_cited_id</text>
<polygon fill="White" stroke="transparent" points="295,-108.5 295,-127.5 354,-127.5 354,-108.5 295,-108.5"/>
<polygon fill="none" stroke="black" points="295,-108.5 295,-127.5 354,-127.5 354,-108.5 295,-108.5"/>
<text text-anchor="start" x="298" y="-114.9" font-family="Helvetica,sans-Serif" font-size="12.00">varchar</text>
</g>
<!-- content&#45;&gt;paper -->
<g id="edge3" class="edge">
<title>content&#45;&gt;paper</title>
<path fill="none" stroke="black" d="M272,-104.96C272,-74.19 272,-34 272,-34 272,-34 174.23,-34 174.23,-34"/>
<polygon fill="black" stroke="black" points="174.23,-30.5 164.23,-34 174.23,-37.5 174.23,-30.5"/>
</g>
</g>
</svg>
